# xmcd
#
# Track frame offsets:
#	180
#	17703
#	37077
#	55432
#	81217
#	101369
#	120282
#	138823
#	157564
#	179735
#
# Disc length: 2687 seconds
#
# Revision: 0
# Processed by: cddbd v1.4PL0 Copyright (c) Steve Scherf et al.
# Submitted via: EasyCDDAExtractor 4.6.0.1
#
DISCID=750a7d0a
DTITLE=Bonnie Raitt - Nobody`s Girl
DYEAR=1994
DGENRE=Blues
TTITLE0=Any Day Women
TTITLE1=Women Be Wise
TTITLE2=Love Me Like A Man
TTITLE3=Angel From Montgomery
TTITLE4=El Salvador
TTITLE5=Write Me Few Of Your Lines
TTITLE6=Kokomo Blues
TTITLE7=Nobody`s Girl
TTITLE8=Thing Called Love
TTITLE9=Nick of Time
EXTD=
EXTT0=
EXTT1=
EXTT2=
EXTT3=
EXTT4=
EXTT5=
EXTT6=
EXTT7=
EXTT8=
EXTT9=
PLAYORDER=
